# xmcd
#
# Track frame offsets: 
#        150
#        18097
#        38261
#        59215
#        79382
#
# Disc length: 1257 seconds
#
# Revision: 0
# Processed by: cddbd v1.5.2PL0 Copyright (c) Steve Scherf et al.
# Submitted via: ExactAudioCopy v0.95b4
#
DISCID=3504e705
DTITLE=Foreign Born - In The Remote Woods
DYEAR=2005
DGENRE=Indie
TTITLE0=The Entryway
TTITLE1=We Had Pleasure
TTITLE2=It Grew On You
TTITLE3=Exactly On The Verge
TTITLE4=In The Remote Woods
EXTD=
EXTT0=
EXTT1=
EXTT2=
EXTT3=
EXTT4=
PLAYORDER=
